<?xml version="1.0" standalone="no"?>
<!DOCTYPE svg PUBLIC "-//W3C//DTD SVG 20010904//EN"
 "http://www.w3.org/TR/2001/REC-SVG-20010904/DTD/svg10.dtd">
<svg version="1.0" xmlns="http://www.w3.org/2000/svg"
 width="2067.000000pt" height="2067.000000pt" viewBox="0 0 2067.000000 2067.000000"
 preserveAspectRatio="xMidYMid meet">
<metadata>
Created by potrace 1.11, written by Peter Selinger 2001-2013
</metadata>
<g transform="translate(0.000000,2067.000000) scale(0.100000,-0.100000)"
fill="#000000" stroke="none">
<path d="M2 15658 c1 -2757 3 -4981 5 -4943 75 1906 657 3723 1698 5305 1362
2070 3429 3582 5820 4260 780 221 1602 350 2430 383 39 2 -2186 4 -4942 5
l-5013 2 2 -5012z"/>
<path d="M10715 20663 c1362 -54 2642 -356 3900 -920 167 -75 562 -275 757
-384 2654 -1480 4524 -4062 5107 -7049 101 -519 163 -1057 184 -1595 2 -38 4
2186 5 4943 l2 5012 -5012 -2 c-2757 -1 -4981 -3 -4943 -5z"/>
<path d="M9945 20414 c-33 -2 -141 -8 -240 -14 -997 -60 -2009 -279 -2965
-643 -1772 -674 -3327 -1846 -4470 -3367 -939 -1251 -1574 -2700 -1855 -4239
-68 -370 -115 -756 -147 -1186 -16 -224 -16 -1036 0 -1260 20 -271 51 -564 82
-786 393 -2751 1884 -5198 4150 -6809 1415 -1007 3100 -1638 4830 -1809 387
-39 539 -45 1005 -45 465 0 616 6 1005 45 1305 128 2613 527 3765 1149 1285
692 2389 1636 3264 2790 1123 1479 1818 3248 2000 5090 39 387 45 539 45 1005
0 466 -6 618 -45 1005 -118 1188 -450 2354 -979 3435 -1229 2508 -3457 4403
-6126 5210 -742 225 -1462 356 -2279 415 -146 11 -920 21 -1040 14z m-3150
-7131 c967 -1413 1762 -2572 1767 -2578 5 -6 8 1007 6 2568 l-3 2577 2675 -3
c2670 -3 2675 -3 2800 -24 406 -69 668 -151 986 -308 700 -346 1232 -958 1477
-1697 216 -652 189 -1353 -74 -1947 -317 -715 -952 -1250 -1792 -1511 l-118
-37 113 -38 c339 -113 636 -275 928 -504 116 -91 352 -325 444 -441 691 -870
840 -2022 381 -2955 -430 -875 -1315 -1433 -2514 -1585 -153 -20 -213 -20
-2730 -18 l-2573 3 1 2690 c0 2093 -2 2697 -12 2722 -14 36 -3508 5142 -3519
5143 -5 0 -8 -2376 -8 -5280 l0 -5280 -140 0 -140 0 0 5535 0 5535 144 0 143
0 1758 -2567z m-5418 -2778 c73 -37 106 -89 111 -175 4 -71 -9 -111 -52 -158
-88 -98 -260 -81 -330 31 -115 186 76 399 271 302z m18080 0 c104 -52 147
-182 94 -285 -80 -152 -299 -150 -376 3 -43 88 -29 173 40 243 69 68 154 82
242 39z"/>
<path d="M8850 13015 l0 -2555 1710 0 1710 0 0 2555 0 2555 -1710 0 -1710 0 0
-2555z"/>
<path d="M12555 15558 c-3 -7 -4 -1156 -3 -2553 l3 -2540 650 0 c563 1 667 3
780 18 655 89 1179 329 1594 732 426 414 683 939 752 1540 16 138 16 418 0
550 -37 309 -107 548 -241 820 -243 495 -618 865 -1135 1120 -332 164 -678
262 -1090 310 -174 20 -1303 22 -1310 3z"/>
<path d="M8937 10158 c21 -35 3316 -4844 3324 -4852 5 -6 9 942 9 2427 l0
2437 -1671 0 c-1334 0 -1669 -3 -1662 -12z"/>
<path d="M12550 7619 l0 -2550 688 4 c641 3 696 5 817 24 520 84 935 252 1297
525 962 726 1271 2070 722 3145 -361 707 -1048 1186 -1939 1352 -256 48 -311
51 -966 51 l-619 0 0 -2551z"/>
<path d="M8850 7422 l0 -2352 1610 0 c886 0 1610 2 1610 5 0 5 -3198 4676
-3211 4690 -5 5 -9 -923 -9 -2343z"/>
<path d="M2 5013 l-2 -5013 5013 2 c2756 1 4981 3 4942 5 -2303 91 -4475 924
-6240 2393 -1593 1325 -2757 3119 -3325 5125 -221 780 -350 1602 -383 2430 -2
39 -4 -2186 -5 -4942z"/>
<path d="M20660 9928 c0 -167 -35 -594 -71 -878 -250 -1971 -1051 -3815 -2315
-5330 -1061 -1272 -2397 -2263 -3924 -2908 -1144 -483 -2372 -755 -3635 -805
-38 -2 2186 -4 4943 -5 l5012 -2 0 5010 c0 2756 -2 5010 -5 5010 -3 0 -5 -42
-5 -92z"/>
</g>
</svg>
